<?xml version="1.0" encoding="utf-8"?>
<!-- Generator: Adobe Illustrator 23.0.0, SVG Export Plug-In . SVG Version: 6.00 Build 0)  -->
<svg version="1.1" id="Ñëîé_1" xmlns="http://www.w3.org/2000/svg" xmlns:xlink="http://www.w3.org/1999/xlink" x="0px" y="0px"
	 width="311.9px" height="241.2px" viewBox="0 0 311.9 241.2" style="enable-background:new 0 0 311.9 241.2;" xml:space="preserve"
	>
<style type="text/css">
	.st0{fill:#EFEFEF;}
	.st1{fill:#173D7A;}
	.st2{fill:#396CAA;}
	.st3{fill:#274F89;}
	.st4{fill:#D4ECFF;}
	.st5{fill:#FFFFFF;}
	.st6{fill:#5793CE;}
	.st7{fill:#B9DFF9;}
	.st8{fill:#FF2C9C;}
	.st9{fill:#0A2D60;}
	.st10{fill:#D3008D;}
</style>
<g>
	<g>
		<path class="st0" d="M165,218.1L64,160.3c-2.9-1.6-2.5-4.5,0.8-6.4l68.8-39.4c3.3-1.9,8.3-2.1,11.2-0.5l101.1,57.8
			c2.9,1.6,2.5,4.5-0.8,6.4l-68.8,39.4C172.9,219.5,167.9,219.7,165,218.1z"/>
		<path class="st1" d="M269.5,69.5L168.4,11.6c-1.2-0.7-2.4-0.8-3.4-0.4l0,0l-0.2,0.1c0,0,0,0,0,0l-3.7,1.4l3.3,1.6
			c0,0.1,0,0.1,0,0.2l-16.5,74.3c-0.8,3.7,0.8,8.1,3.7,9.7l98.7,56.4l-0.4,4.1l4-1.5c1.3-0.6,2.4-2,2.9-4l16.5-74.3
			C274,75.4,272.4,71.1,269.5,69.5z"/>
		<path class="st2" d="M269.5,69.5L168.4,11.6c-1.2-0.7-2.4-0.8-3.4-0.4l0,0l-0.2,0.1c0,0,0,0,0,0l-3.7,1.4l3.3,1.6
			c0,0.1,0,0.1,0,0.2l-10.9,48.9l49.5,38.2l69.7-28.1C272,71.7,270.9,70.3,269.5,69.5z"/>
		<path class="st3" d="M265.7,80.9l7.7-3.2c0.1-3-1.1-6-3.1-7.6l-12.2,5.1L265.7,80.9z"/>
		<path class="st4" d="M246.4,158.6l-101.1-57.8c-2.9-1.6-4.5-6-3.7-9.7l16.5-74.3c0.8-3.7,3.8-5.4,6.7-3.8l101.1,57.8
			c2.9,1.6,4.5,6,3.7,9.7L253,154.8C252.2,158.5,249.2,160.2,246.4,158.6z"/>
		<path class="st5" d="M244.2,153l-95.1-54.4c-2.6-1.5-4.1-5.5-3.4-8.9l15.1-67.9c0.8-3.4,3.5-4.9,6.1-3.4L262,72.8
			c2.6,1.5,4.1,5.5,3.4,8.9l-15.1,67.9C249.5,153,246.8,154.5,244.2,153z"/>
		<path class="st1" d="M244.2,153l-95.1-54.4c-2.6-1.5-4.1-5.5-3.4-8.9l15.1-67.9c0.8-3.4,3.5-4.9,6.1-3.4L262,72.8
			c2.6,1.5,4.1,5.5,3.4,8.9l-15.1,67.9C249.5,153,246.8,154.5,244.2,153z"/>
		<path class="st1" d="M247.8,161.1l-13.8-1.8l-89.2-51c-2.9-1.6-7.9-1.4-11.2,0.5l-63.2,36.1l-8.4-1.1v4.7l0,0
			c-0.1,1.1,0.6,2.1,1.9,2.9L165,209.2c2.9,1.6,7.9,1.4,11.2-0.5l68.8-39.4c1.9-1.1,2.8-2.4,2.7-3.7l0,0V161.1z"/>
		<path class="st2" d="M180.7,128.8l-6.3-3.6h-69.7l-34.3,19.6l-8.4-1.1v4.7l0,0c-0.1,1.1,0.6,2.1,1.9,2.9L165,209.2
			c1.5,0.9,3.6,1.2,5.8,1.1L180.7,128.8z"/>
		<path class="st6" d="M65.7,144.2l-3.7-0.5v4.7l0,0c-0.1,1.1,0.6,2.1,1.9,2.9l1.8,1V144.2z"/>
		<path class="st3" d="M166.1,209.6c2.7,1,6.6,0.8,9.5-0.6v-10.5h-9.5V209.6z"/>
		<path class="st4" d="M165,204.5L64,146.7c-2.9-1.6-2.5-4.5,0.8-6.4l68.8-39.4c3.3-1.9,8.3-2.1,11.2-0.5l101.1,57.8
			c2.9,1.6,2.5,4.5-0.8,6.4L176.2,204C172.9,205.9,167.9,206.1,165,204.5z"/>
		<path class="st5" d="M245,163l-68.8,39.4c-3.3,1.9-8.3,2.1-11.2,0.5L64,144.9c-0.9-0.5-1.5-1.2-1.8-1.9c-0.4,1.3,0.1,2.7,1.8,3.6
			L165,204.5c2.9,1.6,7.9,1.4,11.2-0.5l68.8-39.4c2.2-1.3,3.1-3,2.6-4.5C247.3,161.2,246.4,162.2,245,163z"/>
		<g>
			<path class="st7" d="M106.9,127.5l-4.6-2.6c-0.4-0.2-0.3-0.6,0.1-0.8l5.4-3.1c0.4-0.2,1.1-0.3,1.4-0.1l4.6,2.6
				c0.4,0.2,0.3,0.6-0.1,0.8l-5.4,3.1C108,127.7,107.3,127.7,106.9,127.5z"/>
			<path class="st7" d="M114,131.6l-4.6-2.6c-0.4-0.2-0.3-0.6,0.1-0.8l5.4-3.1c0.4-0.2,1.1-0.3,1.4-0.1l4.6,2.6
				c0.4,0.2,0.3,0.6-0.1,0.8l-5.4,3.1C115,131.7,114.4,131.8,114,131.6z"/>
			<path class="st7" d="M121.1,135.6l-4.6-2.6c-0.4-0.2-0.3-0.6,0.1-0.8l5.4-3.1c0.4-0.2,1.1-0.3,1.4-0.1l4.6,2.6
				c0.4,0.2,0.3,0.6-0.1,0.8l-5.4,3.1C122.1,135.8,121.4,135.8,121.1,135.6z"/>
			<path class="st7" d="M130.8,132.3l-4.6-2.6c-0.4-0.2-0.3-0.6,0.1-0.8l4.5-2.6c0.4-0.2,1.1-0.3,1.4-0.1l4.6,2.6
				c0.4,0.2,0.3,0.6-0.1,0.8l-4.5,2.6C131.9,132.5,131.2,132.5,130.8,132.3z"/>
			<path class="st7" d="M137.9,136.3l-4.6-2.6c-0.4-0.2-0.3-0.6,0.1-0.8l4.5-2.6c0.4-0.2,1.1-0.3,1.4-0.1l4.6,2.6
				c0.4,0.2,0.3,0.6-0.1,0.8l-4.5,2.6C138.9,136.5,138.3,136.5,137.9,136.3z"/>
			<path class="st7" d="M145,140.3l-4.6-2.6c-0.4-0.2-0.3-0.6,0.1-0.8l4.5-2.6c0.4-0.2,1.1-0.3,1.4-0.1l4.6,2.6
				c0.4,0.2,0.3,0.6-0.1,0.8l-4.5,2.6C146,140.5,145.3,140.6,145,140.3z"/>
			<path class="st7" d="M152,144.4l-4.6-2.6c-0.4-0.2-0.3-0.6,0.1-0.8l4.5-2.6c0.4-0.2,1.1-0.3,1.4-0.1l4.6,2.6
				c0.4,0.2,0.3,0.6-0.1,0.8l-4.5,2.6C153,144.6,152.4,144.6,152,144.4z"/>
			<path class="st7" d="M159.1,148.4l-4.6-2.6c-0.4-0.2-0.3-0.6,0.1-0.8l4.5-2.6c0.4-0.2,1.1-0.3,1.4-0.1l4.6,2.6
				c0.4,0.2,0.3,0.6-0.1,0.8l-4.5,2.6C160.1,148.6,159.5,148.6,159.1,148.4z"/>
			<path class="st7" d="M166.2,152.5l-4.6-2.6c-0.4-0.2-0.3-0.6,0.1-0.8l4.5-2.6c0.4-0.2,1.1-0.3,1.4-0.1l4.6,2.6
				c0.4,0.2,0.3,0.6-0.1,0.8l-4.5,2.6C167.2,152.7,166.5,152.7,166.2,152.5z"/>
			<path class="st7" d="M173.2,156.5l-4.6-2.6c-0.4-0.2-0.3-0.6,0.1-0.8l4.5-2.6c0.4-0.2,1.1-0.3,1.4-0.1l4.6,2.6
				c0.4,0.2,0.3,0.6-0.1,0.8l-4.5,2.6C174.2,156.7,173.6,156.7,173.2,156.5z"/>
			<path class="st7" d="M180.3,160.5l-4.6-2.6c-0.4-0.2-0.3-0.6,0.1-0.8l4.5-2.6c0.4-0.2,1.1-0.3,1.4-0.1l4.6,2.6
				c0.4,0.2,0.3,0.6-0.1,0.8l-4.5,2.6C181.3,160.7,180.7,160.8,180.3,160.5z"/>
			<path class="st7" d="M187.3,164.6l-4.6-2.6c-0.4-0.2-0.3-0.6,0.1-0.8l4.5-2.6c0.4-0.2,1.1-0.3,1.4-0.1l4.6,2.6
				c0.4,0.2,0.3,0.6-0.1,0.8l-4.5,2.6C188.4,164.8,187.7,164.8,187.3,164.6z"/>
			<path class="st7" d="M194.4,168.6l-4.6-2.6c-0.4-0.2-0.3-0.6,0.1-0.8l4.5-2.6c0.4-0.2,1.1-0.3,1.4-0.1l4.6,2.6
				c0.4,0.2,0.3,0.6-0.1,0.8l-4.5,2.6C195.4,168.8,194.8,168.8,194.4,168.6z"/>
			<path class="st7" d="M141.2,130.4l-4.6-2.6c-0.4-0.2-0.3-0.6,0.1-0.8l4.5-2.6c0.4-0.2,1.1-0.3,1.4-0.1l4.6,2.6
				c0.4,0.2,0.3,0.6-0.1,0.8l-4.5,2.6C142.3,130.5,141.6,130.6,141.2,130.4z"/>
			<path class="st7" d="M134.1,126.3l-4.6-2.6c-0.4-0.2-0.3-0.6,0.1-0.8l4.5-2.6c0.4-0.2,1.1-0.3,1.4-0.1l4.6,2.6
				c0.4,0.2,0.3,0.6-0.1,0.8l-4.5,2.6C135.1,126.4,134.4,126.5,134.1,126.3z"/>
			<path class="st7" d="M126.9,122.1l-9.9-5.6c-0.4-0.2-0.3-0.6,0.1-0.8l4.5-2.6c0.4-0.2,1.1-0.3,1.4-0.1l9.9,5.6
				c0.4,0.2,0.3,0.6-0.1,0.8l-4.5,2.6C127.9,122.3,127.3,122.4,126.9,122.1z"/>
			<path class="st7" d="M131.9,117.2l-8-4.6c-0.4-0.2-0.3-0.6,0.1-0.8l4.5-2.6c0.4-0.2,1.1-0.3,1.4-0.1l8,4.6
				c0.4,0.2,0.3,0.6-0.1,0.8l-4.5,2.6C132.9,117.3,132.3,117.4,131.9,117.2z"/>
			<path class="st7" d="M148.3,134.4l-4.6-2.6c-0.4-0.2-0.3-0.6,0.1-0.8l4.5-2.6c0.4-0.2,1.1-0.3,1.4-0.1l4.6,2.6
				c0.4,0.2,0.3,0.6-0.1,0.8l-4.5,2.6C149.3,134.6,148.7,134.6,148.3,134.4z"/>
			<path class="st7" d="M155.4,138.4l-4.6-2.6c-0.4-0.2-0.3-0.6,0.1-0.8l4.5-2.6c0.4-0.2,1.1-0.3,1.4-0.1l4.6,2.6
				c0.4,0.2,0.3,0.6-0.1,0.8l-4.5,2.6C156.4,138.6,155.7,138.6,155.4,138.4z"/>
			<path class="st7" d="M162.4,142.5l-4.6-2.6c-0.4-0.2-0.3-0.6,0.1-0.8l4.5-2.6c0.4-0.2,1.1-0.3,1.4-0.1l4.6,2.6
				c0.4,0.2,0.3,0.6-0.1,0.8l-4.5,2.6C163.4,142.7,162.8,142.7,162.4,142.5z"/>
			<path class="st7" d="M169.5,146.5l-4.6-2.6c-0.4-0.2-0.3-0.6,0.1-0.8l4.5-2.6c0.4-0.2,1.1-0.3,1.4-0.1l4.6,2.6
				c0.4,0.2,0.3,0.6-0.1,0.8l-4.5,2.6C170.5,146.7,169.9,146.7,169.5,146.5z"/>
			<path class="st7" d="M176.6,150.6l-4.6-2.6c-0.4-0.2-0.3-0.6,0.1-0.8l4.5-2.6c0.4-0.2,1.1-0.3,1.4-0.1l4.6,2.6
				c0.4,0.2,0.3,0.6-0.1,0.8l-4.5,2.6C177.6,150.7,176.9,150.8,176.6,150.6z"/>
			<path class="st7" d="M183.6,154.6l-4.6-2.6c-0.4-0.2-0.3-0.6,0.1-0.8l4.5-2.6c0.4-0.2,1.1-0.3,1.4-0.1l4.6,2.6
				c0.4,0.2,0.3,0.6-0.1,0.8l-4.5,2.6C184.6,154.8,184,154.8,183.6,154.6z"/>
			<path class="st7" d="M190.7,158.6l-4.6-2.6c-0.4-0.2-0.3-0.6,0.1-0.8l4.5-2.6c0.4-0.2,1.1-0.3,1.4-0.1l4.6,2.6
				c0.4,0.2,0.3,0.6-0.1,0.8l-4.5,2.6C191.7,158.8,191.1,158.8,190.7,158.6z"/>
			<path class="st7" d="M197.8,162.7l-4.6-2.6c-0.4-0.2-0.3-0.6,0.1-0.8l4.5-2.6c0.4-0.2,1.1-0.3,1.4-0.1l4.6,2.6
				c0.4,0.2,0.3,0.6-0.1,0.8l-4.5,2.6C198.8,162.9,198.1,162.9,197.8,162.7z"/>
			<path class="st7" d="M204.8,166.7l-4.6-2.6c-0.4-0.2-0.3-0.6,0.1-0.8l4.5-2.6c0.4-0.2,1.1-0.3,1.4-0.1l4.6,2.6
				c0.4,0.2,0.3,0.6-0.1,0.8l-4.5,2.6C205.8,166.9,205.2,166.9,204.8,166.7z"/>
			<path class="st7" d="M217.4,173.9l-10-5.7c-0.4-0.2-0.3-0.6,0.1-0.8l4.5-2.6c0.4-0.2,1.1-0.3,1.4-0.1l10,5.7
				c0.4,0.2,0.3,0.6-0.1,0.8l-4.5,2.6C218.4,174.1,217.7,174.1,217.4,173.9z"/>
			<path class="st7" d="M231.1,166l-8.4-4.8c-0.4-0.2-0.3-0.6,0.1-0.8l4.5-2.6c0.4-0.2,1.1-0.3,1.4-0.1l8.4,4.8
				c0.4,0.2,0.3,0.6-0.1,0.8l-4.5,2.6C232.1,166.2,231.5,166.2,231.1,166z"/>
			<path class="st7" d="M160.7,133.6l-4.6-2.6c-0.4-0.2-0.3-0.6,0.1-0.8l4.5-2.6c0.4-0.2,1.1-0.3,1.4-0.1l4.6,2.6
				c0.4,0.2,0.3,0.6-0.1,0.8l-4.5,2.6C161.7,133.8,161,133.8,160.7,133.6z"/>
			<path class="st7" d="M153.4,129.5l-4.6-2.6c-0.4-0.2-0.3-0.6,0.1-0.8l4.5-2.6c0.4-0.2,1.1-0.3,1.4-0.1l4.6,2.6
				c0.4,0.2,0.3,0.6-0.1,0.8l-4.5,2.6C154.5,129.6,153.8,129.7,153.4,129.5z"/>
			<path class="st7" d="M146.2,125.3l-4.6-2.6c-0.4-0.2-0.3-0.6,0.1-0.8l4.5-2.6c0.4-0.2,1.1-0.3,1.4-0.1l4.6,2.6
				c0.4,0.2,0.3,0.6-0.1,0.8l-4.5,2.6C147.2,125.5,146.6,125.5,146.2,125.3z"/>
			<path class="st7" d="M139,121.2l-4.6-2.6c-0.4-0.2-0.3-0.6,0.1-0.8l4.5-2.6c0.4-0.2,1.1-0.3,1.4-0.1l4.6,2.6
				c0.4,0.2,0.3,0.6-0.1,0.8l-4.5,2.6C140,121.4,139.3,121.4,139,121.2z"/>
			<path class="st7" d="M167.7,137.6l-4.6-2.6c-0.4-0.2-0.3-0.6,0.1-0.8l4.5-2.6c0.4-0.2,1.1-0.3,1.4-0.1l4.6,2.6
				c0.4,0.2,0.3,0.6-0.1,0.8l-4.5,2.6C168.8,137.8,168.1,137.9,167.7,137.6z"/>
			<path class="st7" d="M174.8,141.7l-4.6-2.6c-0.4-0.2-0.3-0.6,0.1-0.8l4.5-2.6c0.4-0.2,1.1-0.3,1.4-0.1l4.6,2.6
				c0.4,0.2,0.3,0.6-0.1,0.8l-4.5,2.6C175.8,141.9,175.2,141.9,174.8,141.7z"/>
			<path class="st7" d="M181.9,145.7l-4.6-2.6c-0.4-0.2-0.3-0.6,0.1-0.8l4.5-2.6c0.4-0.2,1.1-0.3,1.4-0.1l4.6,2.6
				c0.4,0.2,0.3,0.6-0.1,0.8l-4.5,2.6C182.9,145.9,182.2,145.9,181.9,145.7z"/>
			<path class="st7" d="M188.9,149.8l-4.6-2.6c-0.4-0.2-0.3-0.6,0.1-0.8l4.5-2.6c0.4-0.2,1.1-0.3,1.4-0.1l4.6,2.6
				c0.4,0.2,0.3,0.6-0.1,0.8l-4.5,2.6C189.9,149.9,189.3,150,188.9,149.8z"/>
			<path class="st7" d="M196,153.8l-4.6-2.6c-0.4-0.2-0.3-0.6,0.1-0.8l4.5-2.6c0.4-0.2,1.1-0.3,1.4-0.1l4.6,2.6
				c0.4,0.2,0.3,0.6-0.1,0.8l-4.5,2.6C197,154,196.4,154,196,153.8z"/>
			<path class="st7" d="M203.1,157.8l-4.6-2.6c-0.4-0.2-0.3-0.6,0.1-0.8l4.5-2.6c0.4-0.2,1.1-0.3,1.4-0.1l4.6,2.6
				c0.4,0.2,0.3,0.6-0.1,0.8l-4.5,2.6C204.1,158,203.4,158.1,203.1,157.8z"/>
			<path class="st7" d="M210.1,161.9l-4.6-2.6c-0.4-0.2-0.3-0.6,0.1-0.8l4.5-2.6c0.4-0.2,1.1-0.3,1.4-0.1l4.6,2.6
				c0.4,0.2,0.3,0.6-0.1,0.8l-4.5,2.6C211.1,162.1,210.5,162.1,210.1,161.9z"/>
			<path class="st7" d="M217.2,165.9l-4.6-2.6c-0.4-0.2-0.3-0.6,0.1-0.8l4.5-2.6c0.4-0.2,1.1-0.3,1.4-0.1l4.6,2.6
				c0.4,0.2,0.3,0.6-0.1,0.8l-4.5,2.6C218.2,166.1,217.6,166.1,217.2,165.9z"/>
			<path class="st7" d="M224.3,170l-4.6-2.6c-0.4-0.2-0.3-0.6,0.1-0.8l4.5-2.6c0.4-0.2,1.1-0.3,1.4-0.1l4.6,2.6
				c0.4,0.2,0.3,0.6-0.1,0.8l-4.5,2.6C225.3,170.1,224.6,170.2,224.3,170z"/>
			<path class="st7" d="M157,123.6l-4.6-2.6c-0.4-0.2-0.3-0.6,0.1-0.8l4.5-2.6c0.4-0.2,1.1-0.3,1.4-0.1l4.6,2.6
				c0.4,0.2,0.3,0.6-0.1,0.8l-4.5,2.6C158,123.8,157.3,123.8,157,123.6z"/>
			<path class="st7" d="M149.9,119.6l-4.6-2.6c-0.4-0.2-0.3-0.6,0.1-0.8l4.5-2.6c0.4-0.2,1.1-0.3,1.4-0.1l4.6,2.6
				c0.4,0.2,0.3,0.6-0.1,0.8l-4.5,2.6C150.9,119.8,150.3,119.8,149.9,119.6z"/>
			<path class="st7" d="M142.9,115.6l-4.6-2.6c-0.4-0.2-0.3-0.6,0.1-0.8l4.5-2.6c0.4-0.2,1.1-0.3,1.4-0.1l4.6,2.6
				c0.4,0.2,0.3,0.6-0.1,0.8l-4.5,2.6C143.9,115.8,143.3,115.8,142.9,115.6z"/>
			<path class="st7" d="M135.9,111.6l-4.6-2.6c-0.4-0.2-0.3-0.6,0.1-0.8l4.5-2.6c0.4-0.2,1.1-0.3,1.4-0.1l4.6,2.6
				c0.4,0.2,0.3,0.6-0.1,0.8l-4.5,2.6C136.9,111.7,136.2,111.8,135.9,111.6z"/>
			<path class="st7" d="M143.1,107.4l-4.6-2.6c-0.4-0.2-0.3-0.6,0.1-0.8l1.5-0.9c0.4-0.2,1.1-0.3,1.4-0.1l4.6,2.6
				c0.4,0.2,0.3,0.6-0.1,0.8l-1.5,0.9C144.1,107.6,143.5,107.6,143.1,107.4z"/>
			<path class="st7" d="M152.3,112.7l-4.6-2.6c-0.4-0.2-0.3-0.6,0.1-0.8l1.5-0.9c0.4-0.2,1.1-0.3,1.4-0.1l4.6,2.6
				c0.4,0.2,0.3,0.6-0.1,0.8l-1.5,0.9C153.3,112.8,152.6,112.9,152.3,112.7z"/>
			<path class="st7" d="M159.3,116.7l-4.6-2.6c-0.4-0.2-0.3-0.6,0.1-0.8l1.5-0.9c0.4-0.2,1.1-0.3,1.4-0.1l4.6,2.6
				c0.4,0.2,0.3,0.6-0.1,0.8l-1.5,0.9C160.3,116.9,159.6,116.9,159.3,116.7z"/>
			<path class="st7" d="M166.3,120.7l-4.6-2.6c-0.4-0.2-0.3-0.6,0.1-0.8l1.5-0.9c0.4-0.2,1.1-0.3,1.4-0.1l4.6,2.6
				c0.4,0.2,0.3,0.6-0.1,0.8l-1.5,0.9C167.3,120.9,166.6,120.9,166.3,120.7z"/>
			<path class="st7" d="M173.3,124.7l-4.6-2.6c-0.4-0.2-0.3-0.6,0.1-0.8l1.5-0.9c0.4-0.2,1.1-0.3,1.4-0.1l4.6,2.6
				c0.4,0.2,0.3,0.6-0.1,0.8l-1.5,0.9C174.3,124.9,173.6,124.9,173.3,124.7z"/>
			<path class="st7" d="M212.3,147l-4.6-2.6c-0.4-0.2-0.3-0.6,0.1-0.8l1.5-0.9c0.4-0.2,1.1-0.3,1.4-0.1l4.6,2.6
				c0.4,0.2,0.3,0.6-0.1,0.8l-1.5,0.9C213.4,147.2,212.7,147.2,212.3,147z"/>
			<path class="st7" d="M219.3,151l-4.6-2.6c-0.4-0.2-0.3-0.6,0.1-0.8l1.5-0.9c0.4-0.2,1.1-0.3,1.4-0.1l4.6,2.6
				c0.4,0.2,0.3,0.6-0.1,0.8l-1.5,0.9C220.4,151.2,219.7,151.2,219.3,151z"/>
			<path class="st7" d="M226.3,155l-4.6-2.6c-0.4-0.2-0.3-0.6,0.1-0.8l1.5-0.9c0.4-0.2,1.1-0.3,1.4-0.1l4.6,2.6
				c0.4,0.2,0.3,0.6-0.1,0.8l-1.5,0.9C227.4,155.2,226.7,155.2,226.3,155z"/>
			<path class="st7" d="M233.3,159l-4.6-2.6c-0.4-0.2-0.3-0.6,0.1-0.8l1.5-0.9c0.4-0.2,1.1-0.3,1.4-0.1l4.6,2.6
				c0.4,0.2,0.3,0.6-0.1,0.8l-1.5,0.9C234.4,159.2,233.7,159.2,233.3,159z"/>
			<path class="st7" d="M164,127.7l-4.6-2.6c-0.4-0.2-0.3-0.6,0.1-0.8l4.5-2.6c0.4-0.2,1.1-0.3,1.4-0.1l4.6,2.6
				c0.4,0.2,0.3,0.6-0.1,0.8l-4.5,2.6C165,127.8,164.4,127.9,164,127.7z"/>
			<path class="st7" d="M171.1,131.7l-4.6-2.6c-0.4-0.2-0.3-0.6,0.1-0.8l4.5-2.6c0.4-0.2,1.1-0.3,1.4-0.1l4.6,2.6
				c0.4,0.2,0.3,0.6-0.1,0.8l-4.5,2.6C172.1,131.9,171.5,131.9,171.1,131.7z"/>
			<path class="st7" d="M178.2,135.7l-4.6-2.6c-0.4-0.2-0.3-0.6,0.1-0.8l4.5-2.6c0.4-0.2,1.1-0.3,1.4-0.1l4.6,2.6
				c0.4,0.2,0.3,0.6-0.1,0.8l-4.5,2.6C179.2,135.9,178.5,135.9,178.2,135.7z"/>
			<path class="st7" d="M185.2,139.8l-4.6-2.6c-0.4-0.2-0.3-0.6,0.1-0.8l4.5-2.6c0.4-0.2,1.1-0.3,1.4-0.1l4.6,2.6
				c0.4,0.2,0.3,0.6-0.1,0.8l-4.5,2.6C186.2,140,185.6,140,185.2,139.8z"/>
			<path class="st7" d="M192.3,143.8l-4.6-2.6c-0.4-0.2-0.3-0.6,0.1-0.8l4.5-2.6c0.4-0.2,1.1-0.3,1.4-0.1l4.6,2.6
				c0.4,0.2,0.3,0.6-0.1,0.8l-4.5,2.6C193.3,144,192.6,144,192.3,143.8z"/>
			<path class="st7" d="M199.3,147.9l-4.6-2.6c-0.4-0.2-0.3-0.6,0.1-0.8l4.5-2.6c0.4-0.2,1.1-0.3,1.4-0.1l4.6,2.6
				c0.4,0.2,0.3,0.6-0.1,0.8l-4.5,2.6C200.4,148,199.7,148.1,199.3,147.9z"/>
			<path class="st7" d="M206.4,151.9l-4.6-2.6c-0.4-0.2-0.3-0.6,0.1-0.8l4.5-2.6c0.4-0.2,1.1-0.3,1.4-0.1l4.6,2.6
				c0.4,0.2,0.3,0.6-0.1,0.8l-4.5,2.6C207.4,152.1,206.8,152.1,206.4,151.9z"/>
			<path class="st7" d="M213.5,155.9l-4.6-2.6c-0.4-0.2-0.3-0.6,0.1-0.8l4.5-2.6c0.4-0.2,1.1-0.3,1.4-0.1l4.6,2.6
				c0.4,0.2,0.3,0.6-0.1,0.8l-4.5,2.6C214.5,156.1,213.8,156.1,213.5,155.9z"/>
			<path class="st7" d="M220.5,160l-4.6-2.6c-0.4-0.2-0.3-0.6,0.1-0.8l4.5-2.6c0.4-0.2,1.1-0.3,1.4-0.1l4.6,2.6
				c0.4,0.2,0.3,0.6-0.1,0.8l-4.5,2.6C221.5,160.2,220.9,160.2,220.5,160z"/>
			<path class="st7" d="M123.6,128.1l-13.5-7.7c-0.4-0.2-0.3-0.6,0.1-0.8l4.5-2.6c0.4-0.2,1.1-0.3,1.4-0.1l13.5,7.7
				c0.4,0.2,0.3,0.6-0.1,0.8l-4.5,2.6C124.7,128.3,124,128.4,123.6,128.1z"/>
			<path class="st7" d="M210.4,177.8l-13.5-7.7c-0.4-0.2-0.3-0.6,0.1-0.8l4.5-2.6c0.4-0.2,1.1-0.3,1.4-0.1l13.5,7.7
				c0.4,0.2,0.3,0.6-0.1,0.8l-4.5,2.6C211.4,178,210.8,178,210.4,177.8z"/>
			<path class="st7" d="M182.2,170.6l-4.6-2.6c-0.4-0.2-0.3-0.6,0.1-0.8l5.4-3.1c0.4-0.2,1.1-0.3,1.4-0.1l4.6,2.6
				c0.4,0.2,0.3,0.6-0.1,0.8l-5.4,3.1C183.2,170.7,182.5,170.8,182.2,170.6z"/>
			<path class="st7" d="M130.9,141.2l-7.3-4.2c-0.4-0.2-0.3-0.6,0.1-0.8l5.4-3.1c0.4-0.2,1.1-0.3,1.4-0.1l7.3,4.2
				c0.4,0.2,0.3,0.6-0.1,0.8l-5.4,3.1C131.9,141.4,131.2,141.4,130.9,141.2z"/>
			<path class="st7" d="M175.4,166.7l-7.3-4.2c-0.4-0.2-0.3-0.6,0.1-0.8l5.4-3.1c0.4-0.2,1.1-0.3,1.4-0.1l7.3,4.2
				c0.4,0.2,0.3,0.6-0.1,0.8l-5.4,3.1C176.4,166.8,175.7,166.9,175.4,166.7z"/>
			<path class="st7" d="M141.1,147l-7.3-4.2c-0.4-0.2-0.3-0.6,0.1-0.8l5.4-3.1c0.4-0.2,1.1-0.3,1.4-0.1l7.3,4.2
				c0.4,0.2,0.3,0.6-0.1,0.8l-5.4,3.1C142.1,147.2,141.4,147.3,141.1,147z"/>
			<path class="st7" d="M140.7,138.9l31.8,18.2c0.4,0.2,0.4,0.6,0,0.8l-5.5,3.1c-0.4,0.2-1,0.2-1.4,0l-31.8-18.2L140.7,138.9z"/>
			<path class="st7" d="M201.9,177.9l5.1,2.9c0.3,0.2,0.3,0.5-0.1,0.7l-2.2,1.3c-0.3,0.2-0.9,0.2-1.2,0l-5.1-2.9
				c-0.3-0.2-0.3-0.5,0.1-0.7l2.2-1.3C201.1,177.7,201.6,177.7,201.9,177.9z"/>
			<path class="st7" d="M194.8,173.8l5.1,2.9c0.3,0.2,0.3,0.5-0.1,0.7l-2.2,1.3c-0.3,0.2-0.9,0.2-1.2,0l-5.1-2.9
				c-0.3-0.2-0.3-0.5,0.1-0.7l2.2-1.3C194,173.7,194.5,173.6,194.8,173.8z"/>
			<path class="st7" d="M187.7,169.8l5.1,2.9c0.3,0.2,0.3,0.5-0.1,0.7l-2.2,1.3c-0.3,0.2-0.9,0.2-1.2,0l-5.1-2.9
				c-0.3-0.2-0.3-0.5,0.1-0.7l2.2-1.3C186.9,169.6,187.4,169.6,187.7,169.8z"/>
			<path class="st7" d="M198.7,171.6l5.1,2.9c0.3,0.2,0.3,0.5-0.1,0.7l-2.2,1.3c-0.3,0.2-0.9,0.2-1.2,0l-5.1-2.9
				c-0.3-0.2-0.3-0.5,0.1-0.7l2.2-1.3C197.9,171.4,198.4,171.4,198.7,171.6z"/>
		</g>
		<g>
			<polygon class="st6" points="238.4,77.7 192.5,51.4 193,48.4 239,74.7 			"/>
			<polygon class="st6" points="221.9,82.7 189.9,64.3 190.5,61.4 222.5,79.7 			"/>
			<polygon class="st5" points="218.9,73.7 191.2,57.8 191.8,54.9 219.5,70.8 			"/>
			<polygon class="st8" points="237.1,84.1 223.2,76.2 223.8,73.2 237.7,81.2 			"/>
		</g>
	</g>
	<polygon class="st9" points="238,106.7 229.9,144.9 200.7,128.2 207.1,115.8 	"/>
	<path class="st6" d="M147.7,165.3L147.7,165.3c-8.1-4.6-8.1-16.2,0-20.9l40.7-23.3l41.4,23.7l-35.8,20.5
		C179.7,173.5,162,173.5,147.7,165.3z"/>
	<polygon class="st4" points="185.1,47.5 170.7,39.3 171.3,36.2 185.7,44.4 	"/>
	<polygon class="st5" points="183.8,53.9 169.4,45.7 170.1,42.7 184.4,50.9 	"/>
	<g>
		<path class="st6" d="M60,123.4L60,123.4c-6.5-3.6-10.6-11.5-10.7-22.8c-0.1-22.4,15.8-49.8,35.3-61.1l14.1-8.1l0,0l0,0l0,0
			l0.7,0.4l64.7,36.1l-16.4,10.6l-6.2,4.5l-8.5,8.8l-1.4,1.2l-9,13.5l-3.3,8.5l-2.5,6.7l-2,14.1l-0.1,1.2l0.7,6l2.1,7.4l2.9,5l4.3,5
			L60,123.4z"/>
		<path class="st4" d="M173.3,67.5l0,2.4l-42.9,24.7c0.7-1.7,2.1-3,3.5-4.4L173.3,67.5z"/>
		<polygon class="st4" points="238,104.4 173.3,67.5 134.1,90.8 129.2,96.5 121.8,109.3 117.2,122.1 115.7,132.2 115.5,142.2 
			121.8,156.5 130,161.2 138.5,161.7 148.6,157.5 228.7,110.8 		"/>
		<path class="st2" d="M60,123.4c-5.5-3-9.2-9.1-10.3-17.6l66,37.5l2,7l2.9,5l4.3,5L60,123.4L60,123.4z"/>
		<g>
			<path class="st1" d="M49.9,107.5c-0.4-2.1-0.6-4.4-0.6-6.9c0-1.6,0.1-3.3,0.2-5l65.8,37.4l-0.4,2.8l-0.1,1.2l0.7,6l0.6,2.2
				L49.9,107.5z"/>
			<path class="st1" d="M238,106.7l0-2.4l-88.3,50.9c-18.4,10.6-33.4,2.1-33.5-19c-0.1-21.1,14.9-46.9,33.3-57.5l14.8-8.5l0-2.4
				l-14.8,8.5C129.8,87.6,114,115,114,137.4c0.1,22.4,16,31.5,35.6,20.2L238,106.7z"/>
		</g>
	</g>
	<g>
		<polygon class="st6" points="202.7,111.3 162.9,88.3 160.4,89.7 200.2,112.7 		"/>
		<polygon class="st6" points="201.6,98.2 173.8,82.1 171.3,83.6 199.1,99.6 		"/>
		<polygon class="st6" points="192.4,99.1 168.4,85.2 165.9,86.6 189.9,100.5 		"/>
		<polygon class="st6" points="208.2,108.2 196.2,101.3 193.7,102.7 205.7,109.6 		"/>
	</g>
	<g>
		<path class="st0" d="M199.3,231.4l85.8-49.1c2.1-1.2,1.8-3.3-0.6-4.6l0,0c-2.4-1.4-6-1.5-8.1-0.3l-85.8,49.1
			c-2.1,1.2-1.8,3.3,0.6,4.6l0,0C193.6,232.5,197.2,232.6,199.3,231.4z"/>
		<g>
			<path class="st8" d="M292.1,165.5L292.1,165.5c-0.1-0.1-0.2-0.2-0.4-0.2l-4.6,0.9l1.8,3l3.1-3.4
				C292.2,165.8,292.2,165.7,292.1,165.5z"/>
			<g>
				<path class="st6" d="M290.3,167.8c0-0.7-0.5-1.4-1-1.8c-0.3-0.2-0.5-0.2-0.7-0.1c-5.3-0.1-10.5,1.2-15,3.8l-0.3,0.2l5.6,9.6
					l1.7-1.1c3.6-2.3,6.6-5.3,8.8-8.9l0.7-1.2C290.2,168.3,290.3,168.1,290.3,167.8z"/>
				<path class="st6" d="M280,177c0-2.5-1.8-5.5-3.9-6.8s-4-0.2-4,2.3c0,2.5,1.8,5.5,3.9,6.8C278.2,180.5,280,179.5,280,177z"/>
				<polygon class="st6" points="245,199.9 278.8,179.5 273.3,169.9 238.4,188.6 				"/>
				<path class="st4" d="M246.4,196.9c0-2.9-2.1-6.5-4.7-8c-2.6-1.5-4.7-0.3-4.7,2.7c0,2.9,2.1,6.5,4.7,8
					C244.3,201.1,246.4,199.9,246.4,196.9z"/>
			</g>
			<g>
				<path class="st4" d="M244.4,198c0-2.9-2.1-6.5-4.7-8c-2.6-1.5-4.7-0.3-4.7,2.7c0,2.9,2.1,6.5,4.7,8
					C242.4,202.2,244.4,201,244.4,198z"/>
				<polygon class="st4" points="198.4,226.5 243.1,201 236.5,189.7 191.8,215.1 				"/>
				<path class="st4" d="M199.7,223.5c0-2.9-2.1-6.5-4.7-8c-2.6-1.5-4.7-0.3-4.7,2.7c0,2.9,2.1,6.5,4.7,8
					C197.6,227.6,199.7,226.4,199.7,223.5z"/>
				<path class="st2" d="M198.1,222.5c-0.1-1.7-1.5-3.9-3.1-4.9c-1.7-1-2.9-0.3-2.8,1.4c0.1,1.7,1.5,3.9,3.1,4.9
					C196.9,224.9,198.1,224.3,198.1,222.5z"/>
			</g>
			<g>
				<path class="st5" d="M246.7,196.7c0-2.9-2.1-6.5-4.7-8c-1-0.6-2-0.8-2.8-0.5c0.8-0.9,2.2-1,3.8-0.1c2.6,1.5,4.7,5.1,4.7,8
					c0,1.8-0.8,2.9-1.9,3.2C246.4,198.8,246.7,197.9,246.7,196.7z"/>
				<path class="st6" d="M246.7,196.7c0-2.9-2.1-6.5-4.7-8c-1.3-0.7-2.5-0.8-3.3-0.3l-2.5,1.4l1.2,2c0.2,2.7,2,5.8,4.2,7.3l1.2,2
					l2.5-1.4l0,0C246.2,199.2,246.7,198.2,246.7,196.7z"/>
				<path class="st4" d="M244.2,198.2c0-2.9-2.1-6.5-4.7-8c-2.6-1.5-4.7-0.3-4.7,2.7c0,2.9,2.1,6.5,4.7,8
					C242.1,202.3,244.2,201.1,244.2,198.2z"/>
			</g>
			<g>
				<path class="st8" d="M196,223.8l-2.8-4.9l-9.5,5.4c-1.4,0.8-1.8,2.5-1.1,3.9l0,0c0.8,1.4,2.5,1.8,3.9,1L196,223.8z"/>
				<path class="st8" d="M196.5,222.5c0-1.3-0.9-2.8-2-3.5c-1.1-0.6-2-0.1-2,1.1c0,1.3,0.9,2.8,2,3.5
					C195.6,224.3,196.5,223.8,196.5,222.5z"/>
			</g>
			<g>
				<path class="st6" d="M207.2,205.5l-1.4-0.8c-0.8-0.5-1.9-0.4-3,0.3l-4.9,2.8c-0.9,0.5-1.7,1.8-1.7,2.9l0,2.4
					c0,0.4-0.2,0.9-0.5,1.2l0.2,1.1l-1.2-0.7l0,0c-0.2-0.1-0.3-0.3-0.3-0.6l0-2.4c0-2.2,1.6-4.9,3.5-6l4.9-2.8
					c1.6-0.9,3.2-1.1,4.3-0.4l1.4,0.8c0.8,0.5,1.9,0.4,3-0.3l19.6-11.2c0.3-0.1,0.5-0.2,0.6-0.1l0,0l1.2,0.7l-1,0.4
					c-0.1,0.4-0.5,0.8-0.8,1L211.5,205C209.9,206,208.3,206.1,207.2,205.5z"/>
				<path class="st6" d="M207,205.3c-0.8-0.5-1.9-0.4-3,0.3l-4.9,2.8c-0.9,0.5-1.7,1.8-1.7,2.9l0,2.4c0,0.6-0.4,1.3-0.9,1.5
					c-0.5,0.3-0.9,0.1-0.9-0.5l0-2.4c0-2.2,1.6-4.9,3.5-6l4.9-2.8c1.6-0.9,3.2-1.1,4.3-0.4l1.4,0.8c0.8,0.5,1.9,0.4,3-0.3l19.6-11.2
					c0.5-0.3,0.9-0.1,0.9,0.5c0,0.6-0.4,1.3-0.9,1.5l-19.6,11.2c-1.6,0.9-3.2,1.1-4.3,0.4L207,205.3z"/>
				<g>
					<path class="st5" d="M197.4,211.7l0,2.4c0,0,0,0,0,0c0-0.2,0.1-0.3,0.1-0.4l0-2.4c0-0.1,0-0.1,0-0.2
						C197.4,211.3,197.4,211.5,197.4,211.7z"/>
				</g>
			</g>
		</g>
		<path class="st0" d="M188.2,235.4l9-5.1c1.1-0.6,0.9-1.7-0.3-2.4l0,0c-1.3-0.7-3.1-0.8-4.2-0.2l-9,5.1c-1.1,0.6-0.9,1.7,0.3,2.4h0
			C185.2,235.9,187.1,236,188.2,235.4z"/>
	</g>
	<g>
		<polygon class="st0" points="17.7,141.1 5.7,134.2 17.7,127.3 29.7,134.2 		"/>
		<polygon class="st10" points="29.7,126.4 17.7,133.3 17.7,119.5 29.7,112.7 		"/>
		<polygon class="st8" points="17.7,119.5 5.7,112.7 17.7,105.8 29.7,112.7 		"/>
		<polygon class="st8" points="17.7,133.3 5.7,126.4 5.7,112.7 17.7,119.5 		"/>
	</g>
	<g>
		<polygon class="st0" points="292.3,143.6 279,135.9 292.3,128.3 305.7,135.9 		"/>
		<polygon class="st1" points="305.7,127.3 292.3,134.9 292.3,119.6 305.7,112 		"/>
		<polygon class="st4" points="292.3,119.6 279,112 292.3,104.3 305.7,112 		"/>
		<polygon class="st6" points="292.3,134.9 279,127.3 279,112 292.3,119.6 		"/>
	</g>
	<g>
		<polygon class="st0" points="100.7,234.5 87.4,226.9 100.7,219.3 114.1,226.9 		"/>
		<polygon class="st1" points="114.1,218.2 100.7,225.9 100.7,210.6 114.1,202.9 		"/>
		<polygon class="st4" points="100.7,210.6 87.4,202.9 100.7,195.3 114.1,202.9 		"/>
		<polygon class="st6" points="100.7,225.9 87.4,218.2 87.4,202.9 100.7,210.6 		"/>
	</g>
	<g>
		<g>
			<ellipse class="st6" cx="148.1" cy="116.9" rx="20.3" ry="11.6"/>
			<path class="st10" d="M168.4,110.9v-3.7h-1.1c-1-1.6-2.6-3.2-4.9-4.5c-7.9-4.5-20.8-4.5-28.7,0c-2.3,1.3-3.9,2.9-4.9,4.5h-1.1
				v3.7h0c0,3,2,6,5.9,8.2c7.9,4.5,20.8,4.5,28.7,0C166.4,116.8,168.4,113.9,168.4,110.9z"/>
			<ellipse class="st8" cx="148.1" cy="107.2" rx="20.3" ry="11.6"/>
			<path class="st5" d="M162.4,115.4c-7.9,4.5-20.8,4.5-28.7,0c-3.8-2.2-5.8-5-5.9-7.8c-0.2,3.1,1.8,6.2,5.9,8.6
				c7.9,4.5,20.8,4.5,28.7,0c4.1-2.4,6.1-5.5,5.9-8.6C168.2,110.4,166.2,113.2,162.4,115.4z"/>
		</g>
		<g>
			<path class="st5" d="M138.3,111c-0.3-0.2-0.5-0.5-0.5-0.7l0-7.6c0-0.6,0.8-1,1.8-1c1,0,1.8,0.5,1.8,1l0,6.3l18.4-2.2
				c1-0.1,2,0.2,2.2,0.8c0.2,0.6-0.4,1.1-1.4,1.2l-20.6,2.5c-0.5,0.1-1.1,0-1.5-0.2C138.4,111.1,138.3,111.1,138.3,111z"/>
		</g>
	</g>
	<g>
		<path class="st8" d="M237,89.2c-0.4,0.8-1.3,1.1-2,0.6c-0.8-0.4-1.1-1.4-0.7-2.2c0.4-0.8,1.3-1.1,2-0.6
			C237,87.4,237.3,88.4,237,89.2z"/>
		<path class="st5" d="M241.9,92c-0.4,0.8-1.3,1.1-2,0.6c-0.8-0.4-1.1-1.4-0.7-2.2s1.3-1.1,2-0.6C241.9,90.2,242.2,91.2,241.9,92z"
			/>
		<path class="st4" d="M246.8,94.8c-0.4,0.8-1.3,1.1-2,0.6s-1.1-1.4-0.7-2.2s1.3-1.1,2-0.6C246.8,93,247.1,94,246.8,94.8z"/>
		<path class="st8" d="M251.7,97.6c-0.4,0.8-1.3,1.1-2,0.6c-0.8-0.4-1.1-1.4-0.7-2.2c0.4-0.8,1.3-1.1,2-0.6
			C251.7,95.8,252.1,96.8,251.7,97.6z"/>
	</g>
	<path class="st1" d="M99.4,31.8l-0.7-0.4l0,0l0,0l-14.1,8.1c-4.6,2.7-9,6.2-13.1,10.4l24.2,13.8l30.2-17.3L99.4,31.8z"/>
	<g>
		<g>
			<g>
				<path class="st8" d="M125.3,32.2l-4.4-2.5l16.2-9.2c0.8-0.4,0.8-1.1,0-1.6l-16.5-9.4c-0.8-0.4-2-0.4-2.8,0l-16.2,9.2l-4.4-2.5
					l16.2-9.2c3.2-1.8,8.4-1.8,11.5,0l16.5,9.4c3.2,1.8,3.2,4.8,0,6.6L125.3,32.2z"/>
			</g>
			<g>
				<path class="st4" d="M132.3,33.3c0-2.3-1.4-5-3.2-6L99.9,10.5c-0.8-0.5-1.5-0.5-2.1-0.2l0,0L62.9,30.5l33.8,25.2l34.4-19.8
					c0.1,0,0.2-0.1,0.3-0.2l0,0l0,0C132,35.3,132.3,34.4,132.3,33.3z"/>
				<path class="st6" d="M96.7,55.7l34.4-19.8c0.1,0,0.2-0.1,0.3-0.2l0,0v0c0.6-0.4,0.9-1.3,0.9-2.4c0-1.1-0.3-2.3-0.9-3.4
					L92.2,52.4L96.7,55.7z"/>
				<path class="st6" d="M94.5,55.6L65.2,38.9c-1.8-1-3.2-3.7-3.2-6l0,0c0-2.3,1.4-3.4,3.2-2.4l29.3,16.7c1.8,1,3.2,3.7,3.2,6l0,0
					C97.7,55.5,96.2,56.6,94.5,55.6z"/>
				<path class="st5" d="M94.8,47L65.6,30.3c-0.8-0.5-1.5-0.5-2.1-0.1c0.5-0.2,1.1-0.1,1.8,0.3l29.3,16.7c1.8,1,3.2,3.7,3.2,6v0
					c0,1.3-0.4,2.1-1.1,2.5c0.9-0.3,1.4-1.2,1.4-2.7v0C98,50.7,96.6,48,94.8,47z"/>
			</g>
			<path class="st5" d="M90.1,50l-3.5-2c-0.4-0.2-0.6-0.7-0.6-1.2l0,0c0-0.5,0.3-0.7,0.6-0.5l3.5,2c0.4,0.2,0.6,0.7,0.6,1.2l0,0
				C90.7,49.9,90.4,50.2,90.1,50z"/>
		</g>
		<g>
			<path class="st6" d="M94.1,26.2c1.1-0.6,1.1-1.6,0-2.2c-1.1-0.6-2.8-0.6-3.9,0c-1.1,0.6-1.1,1.6,0,2.2
				C91.3,26.8,93,26.8,94.1,26.2z"/>
			<path class="st5" d="M99.9,29.4c1.1-0.6,1.1-1.6,0-2.2c-1.1-0.6-2.8-0.6-3.9,0c-1.1,0.6-1.1,1.6,0,2.2
				C97.2,30.1,98.9,30.1,99.9,29.4z"/>
			<path class="st5" d="M105.8,32.7c1.1-0.6,1.1-1.6,0-2.2c-1.1-0.6-2.8-0.6-3.9,0c-1.1,0.6-1.1,1.6,0,2.2
				C103,33.4,104.8,33.4,105.8,32.7z"/>
		</g>
	</g>
	<g>
		<path class="st0" d="M36,208.5L9.3,193.2c-1.6-0.9-1.4-2.6,0.5-3.7l25.8-14.8c1.9-1.1,4.8-1.2,6.4-0.3l26.8,15.3
			c1.6,0.9,1.4,2.6-0.5,3.7l-25.8,14.8C40.5,209.3,37.7,209.4,36,208.5z"/>
		<path class="st2" d="M69.8,182.4L69.8,182.4v-9.1l-20.7,0l-7.2-4.1c-1.6-0.9-4.5-0.8-6.4,0.3l-6.7,3.8l-20.7,0v9.4
			c0,0.6,0.3,1.2,1.1,1.7L36,199.6c1.6,0.9,4.5,0.8,6.4-0.3l25.8-14.8C69.4,183.9,69.9,183.1,69.8,182.4z"/>
		<path class="st2" d="M39,168.5c-1.2,0-2.4,0.3-3.4,0.9l-6.7,3.8l-20.7,0v9.4c0,0.6,0.3,1.2,1.1,1.7L36,199.6
			c0.8,0.5,1.9,0.7,3,0.6V168.5z"/>
		<path class="st6" d="M10.5,173.2l-2.3,0v9.4c0,0.6,0.3,1.2,1.1,1.7l1.2,0.7V173.2z"/>
		<path class="st6" d="M36.4,199.8c1.4,0.6,3.5,0.6,5.1-0.1v-10.7h-5.1V199.8z"/>
		<path class="st4" d="M36,190.2L9.3,174.9c-1.6-0.9-1.4-2.6,0.5-3.7l25.8-14.8c1.9-1.1,4.8-1.2,6.4-0.3l26.8,15.3
			c1.6,0.9,1.4,2.6-0.5,3.7L42.4,190C40.5,191,37.7,191.2,36,190.2z"/>
		<path class="st5" d="M68.3,173.4l-25.8,14.8c-1.9,1.1-4.8,1.2-6.4,0.3L9.3,173.1c-0.4-0.2-0.6-0.5-0.8-0.7
			c-0.6,0.9-0.3,1.9,0.8,2.5L36,190.2c1.6,0.9,4.5,0.8,6.4-0.3l25.8-14.8c1.5-0.8,1.9-2,1.3-2.9C69.3,172.6,68.9,173,68.3,173.4z"/>
		<g>
			<path class="st4" d="M60,184.8c0,0.7-0.5,1.5-1.1,1.9c-0.6,0.3-1.1,0.1-1.1-0.6c0-0.7,0.5-1.5,1.1-1.9
				C59.5,183.8,60,184.1,60,184.8z"/>
			<path class="st4" d="M63.5,182.8c0,0.7-0.5,1.5-1.1,1.9c-0.6,0.3-1.1,0.1-1.1-0.6c0-0.7,0.5-1.5,1.1-1.9
				C63,181.8,63.5,182.1,63.5,182.8z"/>
			<path class="st4" d="M67,180.8c0,0.7-0.5,1.5-1.1,1.9s-1.1,0.1-1.1-0.6c0-0.7,0.5-1.5,1.1-1.9S67,180.1,67,180.8z"/>
		</g>
		<g>
			<path class="st6" d="M37.6,180.7l-12.5-7.2c-0.8-0.4-0.7-1.2,0.2-1.7l12.1-6.9c0.9-0.5,2.2-0.6,3-0.1l12.5,7.2
				c0.8,0.4,0.7,1.2-0.2,1.7l-12.1,6.9C39.7,181.1,38.4,181.2,37.6,180.7z"/>
			<path class="st4" d="M38.8,174.7l-1.7-1c-0.1-0.1-0.1-0.2,0-0.2l1.7-1c0.1-0.1,0.3-0.1,0.4,0l1.7,1c0.1,0.1,0.1,0.2,0,0.2l-1.7,1
				C39.1,174.8,38.9,174.8,38.8,174.7z"/>
			<path class="st2" d="M25.1,173.6L25.1,173.6c0.1,0,0.1-0.1,0.2-0.1l12.1-6.9c0.9-0.5,2.2-0.6,3-0.1l12.5,7.1
				c0.7-0.5,0.7-1.2,0-1.6l-12.5-7.2c-0.8-0.4-2.1-0.4-3,0.1l-12.1,6.9C24.4,172.4,24.3,173.1,25.1,173.6z"/>
		</g>
	</g>
</g>
</svg>
